<?xml version="1.0" encoding="UTF-8" standalone="no"?>
<!-- Created with Inkscape (http://www.inkscape.org/) -->

<svg
   width="1440"
   height="840"
   viewBox="0 0 1440 840"
   version="1.1"
   id="svg1"
   inkscape:version="1.4 (86a8ad7, 2024-10-11)"
   sodipodi:docname="terrain-physics.svg"
   xml:space="preserve"
   xmlns:inkscape="http://www.inkscape.org/namespaces/inkscape"
   xmlns:sodipodi="http://sodipodi.sourceforge.net/DTD/sodipodi-0.dtd"
   xmlns:xlink="http://www.w3.org/1999/xlink"
   xmlns="http://www.w3.org/2000/svg"
   xmlns:svg="http://www.w3.org/2000/svg"><sodipodi:namedview
     id="namedview1"
     pagecolor="#ffffff"
     bordercolor="#666666"
     borderopacity="1.0"
     inkscape:showpageshadow="2"
     inkscape:pageopacity="0.0"
     inkscape:pagecheckerboard="0"
     inkscape:deskcolor="#d1d1d1"
     inkscape:document-units="mm"
     inkscape:zoom="0.34876894"
     inkscape:cx="616.45397"
     inkscape:cy="362.70431"
     inkscape:window-width="1920"
     inkscape:window-height="1001"
     inkscape:window-x="-9"
     inkscape:window-y="-9"
     inkscape:window-maximized="1"
     inkscape:current-layer="layer1"
     showgrid="false" /><defs
     id="defs1" /><g
     inkscape:label="Layer 1"
     inkscape:groupmode="layer"
     id="layer1"><image
       width="1440"
       height="1018.016"
       preserveAspectRatio="none"
       xlink:href="../images/BG/BG-3-test.jpg"
       id="image1"
       x="0"
       y="-89.295685" /><path
       style="fill:#000000;fill-opacity:0.413681;stroke:#000000;stroke-width:2.00173;stroke-linecap:butt;stroke-linejoin:miter;stroke-dasharray:none;stroke-opacity:1"
       d="M 1787.3956,-82.991958 -296.68828,-21.818516 0,719.68208 270.94761,719.81801 428.7754,711.52539 586.45382,688.3499 741.90347,670.39139 934.74282,658.76745 1072.2794,652.92847 1240.5553,650.43244 1440,647.20387 1626.8918,-67.628449 1797.2297,-33.895198 1734.542,675.26006 1439.5788,929.29569 4.1149029,927.86311 -338.13202,799.94229 -354.28857,-74.218731 -215.59334,-288.91196 1778.0913,-319.38384 Z"
       id="base"
       sodipodi:nodetypes="ccccccccccccccccccccc" /><path
       id="rect1"
       style="fill:#ff0000;fill-opacity:0.413681;stroke:#ff0000;stroke-width:2.01782;stroke-linecap:round"
       d="m 2029.6322,363.6816 66.0868,54.68182 -54.6818,66.08681 -66.0868,-54.68181 z" /><path
       id="rect2"
       style="fill:#ff0000;fill-opacity:0.413681;stroke:#ff0000;stroke-width:2.01806;stroke-linecap:round"
       d="m 2290.3208,270.7164 101.4214,15.13805 -15.138,101.42141 -101.4214,-15.13805 z" /><path
       style="fill:none;stroke:#000000;stroke-width:0.602969px;stroke-linecap:butt;stroke-linejoin:miter;stroke-opacity:1"
       d="m 2009.0947,646.1133 -71.5151,-274.44663 132.6391,-64.79141 196.2079,217.87542 -131.5291,8.11021 z"
       id="path2"
       sodipodi:nodetypes="cccccc" /><path
       style="fill:#000000;fill-opacity:0.413681;stroke:#000000;stroke-width:2.00173;stroke-linecap:butt;stroke-linejoin:miter;stroke-dasharray:none;stroke-opacity:1"
       d="m -1399.848,42.289412 35.8149,136.096878 -137.5294,55.87136 -193.4009,-45.84316 -190.5356,98.84932 -10.0282,267.89597 174.7771,11.46077 61.6017,131.79911 153.2881,5.7304 83.0907,-77.36034 130.3665,-170.47927 127.5013,45.84316 173.34445,-32.94977 146.125,236.37881 204.8616,94.55151 -1435.46385,-1.43258 V 45.15461 Z"
       id="path1" /></g></svg>
